<svg width="20" height="20" viewBox="0 0 20 20" fill="none" xmlns="http://www.w3.org/2000/svg">
<path d="M11 1.79895C6.55502 1.79895 2.93902 5.36095 2.83102 9.79495V9.99995H0.459015L4.05301 13.894L7.54701 9.99995H4.87501V9.79495C4.98201 6.49195 7.68302 3.84995 11 3.84995C14.386 3.84995 17.131 6.60395 17.131 9.99995C17.131 13.396 14.386 16.15 11 16.15C9.69449 16.1507 8.42317 15.7326 7.37301 14.957L5.96701 16.461C7.40203 17.5888 9.17482 18.201 11 18.1989C15.515 18.1989 19.174 14.529 19.174 9.99995C19.174 5.47095 15.515 1.79895 11 1.79895ZM10 4.99995V9.99995C10.0012 10.2649 10.1064 10.5188 10.293 10.707L13.493 13.9069C13.776 13.7239 14.043 13.518 14.28 13.279L12 11V4.99995H10Z" fill="black"/>
</svg>
