<svg width="1024" height="1024" viewBox="0 0 1024 1024" fill="none" xmlns="http://www.w3.org/2000/svg">
<path d="M896 1024H128C92.6667 1024 62.5 1011.5 37.5 986.5C12.5 961.5 0 931.333 0 896V384C0 348.667 12.5 318.5 37.5 293.5C62.5 268.5 92.6667 256 128 256H256V160C256 114.667 273 76.6667 307 46C341 15.3333 377.333 0 416 0H608C646.667 0 683 15.3333 717 46C751 76.6667 768 114.667 768 160V256H896C931.333 256 961.5 268.5 986.5 293.5C1011.5 318.5 1024 348.667 1024 384V896C1024 931.333 1011.5 961.5 986.5 986.5C961.5 1011.5 931.333 1024 896 1024ZM288 448C261.333 448 238.667 457.333 220 476C201.333 494.667 192 517.333 192 544C192 570.667 201.333 593.333 220 612C238.667 630.667 261.333 640 288 640C314.667 640 337.333 630.667 356 612C374.667 593.333 384 570.667 384 544C384 517.333 374.667 494.667 356 476C337.333 457.333 314.667 448 288 448ZM640 192C640 174 633.833 158.833 621.5 146.5C609.167 134.167 594 128 576 128H448C430.667 128 415.667 134.167 403 146.5C390.333 158.833 384 174 384 192V256H640V192ZM832 640L576 704L640 896L896 832L832 640Z" fill="#0A4EAF"/>
</svg>
