<?xml version="1.0" encoding="utf-8"?>
<!-- Generator: Adobe Illustrator 25.4.1, SVG Export Plug-In . SVG Version: 6.00 Build 0)  -->
<svg version="1.1" id="Lager_1" xmlns="http://www.w3.org/2000/svg" xmlns:xlink="http://www.w3.org/1999/xlink" x="0px" y="0px"
	 viewBox="0 0 32.8 35.2" style="enable-background:new 0 0 32.8 35.2;" xml:space="preserve">
<style type="text/css">
	.st0{fill:#40596B;}
	.st1{fill:#275996;}
	.st2{fill:#84DBFF;}
	.st3{fill:#F7931E;}
</style>
<path class="st0" d="M9.1,28.7H5.2c-0.2,0-0.4,0.1-0.5,0.2c-0.1,0.1-0.2,0.3-0.2,0.5v2.7c0,0.4,0,0.8,0.2,1.1c0.1,0.4,0.3,0.7,0.6,1
	c0.2,0.3,0.5,0.5,0.9,0.7c0.3,0.2,0.7,0.2,1.1,0.2c0.4,0,0.7-0.1,1.1-0.2c0.3-0.2,0.6-0.4,0.9-0.7c0.2-0.3,0.4-0.6,0.6-1
	c0.1-0.4,0.2-0.8,0.2-1.1v-2.7c0-0.2-0.1-0.4-0.2-0.5C9.5,28.8,9.3,28.7,9.1,28.7z"/>
<path class="st0" d="M27.6,28.7h-3.9c-0.2,0-0.4,0.1-0.5,0.2c-0.1,0.1-0.2,0.3-0.2,0.5v2.7c0,0.4,0,0.8,0.2,1.1
	c0.1,0.4,0.3,0.7,0.6,1c0.2,0.3,0.5,0.5,0.9,0.7c0.3,0.2,0.7,0.2,1.1,0.2s0.7-0.1,1.1-0.2c0.3-0.2,0.6-0.4,0.9-0.7
	c0.2-0.3,0.4-0.6,0.6-1c0.1-0.4,0.2-0.8,0.2-1.1v-2.7c0-0.2-0.1-0.4-0.2-0.5C28,28.8,27.8,28.7,27.6,28.7z"/>
<path class="st1" d="M21.6,0H11.2c-0.4,0-0.7,0.3-0.7,0.8v3.9c0,0.4,0.3,0.8,0.7,0.8h10.3c0.4,0,0.7-0.3,0.7-0.8V0.8
	C22.3,0.3,22,0,21.6,0z"/>
<path class="st2" d="M28.2,9.1c-0.1-1.4-0.7-2.7-1.7-3.7c-1-1-2.2-1.5-3.5-1.5H9.9c-1.3,0-2.6,0.6-3.5,1.5c-1,1-1.6,2.3-1.7,3.7
	l-0.8,9.3c0,0.1,0,0.2,0,0.3C4,18.9,4,19,4.1,19s0.1,0.1,0.2,0.2c0.1,0,0.2,0.1,0.3,0.1h23.6c0.1,0,0.2,0,0.3-0.1
	c0.1,0,0.2-0.1,0.2-0.2c0.1-0.1,0.1-0.2,0.1-0.3c0-0.1,0-0.2,0-0.3L28.2,9.1z"/>
<path class="st1" d="M27.5,17.8H5.3c-1.4,0-2.7,0.6-3.7,1.7c-1,1.1-1.5,2.5-1.6,4v3.4c0,0.9,0.3,1.8,0.9,2.4c0.6,0.6,1.4,1,2.2,1
	h26.5c0.8,0,1.6-0.4,2.2-1c0.6-0.6,0.9-1.5,0.9-2.4v-3.4c0-1.5-0.6-2.9-1.6-4C30.3,18.4,28.9,17.8,27.5,17.8z"/>
<path class="st3" d="M7.1,21.2c-0.5,0-1,0.2-1.4,0.5c-0.4,0.3-0.8,0.7-1,1.2c-0.2,0.5-0.2,1.1-0.1,1.6c0.1,0.5,0.3,1,0.7,1.4
	c0.4,0.4,0.8,0.7,1.3,0.8c0.5,0.1,1,0.1,1.5-0.2c0.5-0.2,0.9-0.6,1.2-1c0.3-0.5,0.4-1,0.4-1.5c0-0.7-0.3-1.4-0.8-2
	S7.8,21.2,7.1,21.2z"/>
<path class="st3" d="M25.7,21.2c-0.5,0-1,0.2-1.4,0.5c-0.4,0.3-0.8,0.7-1,1.2c-0.2,0.5-0.2,1.1-0.1,1.6c0.1,0.5,0.3,1,0.7,1.4
	c0.4,0.4,0.8,0.7,1.3,0.8c0.5,0.1,1,0.1,1.5-0.2c0.5-0.2,0.9-0.6,1.2-1c0.3-0.5,0.4-1,0.4-1.5c0-0.7-0.3-1.4-0.8-2
	C27,21.5,26.4,21.2,25.7,21.2z"/>
</svg>
