<svg width="24" height="24" viewBox="0 0 24 24" fill="none" xmlns="http://www.w3.org/2000/svg">
<g clip-path="url(#clip0_233_466)">
<path fill-rule="evenodd" clip-rule="evenodd" d="M23 0H1C0.734784 0 0.48043 0.105357 0.292893 0.292893C0.105357 0.48043 0 0.734784 0 1L0 23C0 23.2652 0.105357 23.5196 0.292893 23.7071C0.48043 23.8946 0.734784 24 1 24H12.75V15H9.75V11.25H12.75V8.25C12.75 5.15 14.713 3.625 17.478 3.625C18.802 3.625 19.941 3.724 20.272 3.767V7.007L18.355 7.008C16.851 7.008 16.5 7.723 16.5 8.771V11.25H20.25L19.5 15H16.5L16.56 24H23C23.2652 24 23.5196 23.8946 23.7071 23.7071C23.8946 23.5196 24 23.2652 24 23V1C24 0.734784 23.8946 0.48043 23.7071 0.292893C23.5196 0.105357 23.2652 0 23 0" fill="white"/>
</g>
<defs>
<clipPath id="clip0_233_466">
<rect width="24" height="24" fill="white"/>
</clipPath>
</defs>
</svg>
