<svg width="52" height="49" viewBox="0 0 52 49" fill="none" xmlns="http://www.w3.org/2000/svg">
<path d="M26 49C19.0552 49 12.526 46.4515 7.61516 41.8242C2.70451 37.1966 0 31.0442 0 24.5C0 17.9558 2.70451 11.8034 7.61516 7.17582C12.526 2.54848 19.0552 0 26 0C32.9448 0 39.474 2.54848 44.3848 7.17582C49.2955 11.8034 52 17.9558 52 24.5C52 31.0442 49.2955 37.1966 44.3848 41.8242C39.474 46.4515 32.9448 49 26 49Z" fill="#0A4EAF"/>
<path d="M44.3848 7.17582C39.474 2.54848 32.9448 0 26 0V49C32.9448 49 39.474 46.4515 44.3848 41.8242C49.2955 37.1966 52 31.0442 52 24.5C52 17.9558 49.2955 11.8034 44.3848 7.17582Z" fill="#063E8B"/>
<path d="M26 17.7051C22.9199 17.7051 20.4141 15.3438 20.4141 12.4414C20.4141 9.53902 22.9199 7.17773 26 7.17773C29.0801 7.17773 31.5859 9.53902 31.5859 12.4414C31.5859 15.3438 29.0801 17.7051 26 17.7051ZM30.5703 37.8027V20.5762H19.3984V23.4473H22.4453V37.8027H19.3984V40.6738H33.6172V37.8027H30.5703Z" fill="white"/>
<path d="M26 17.7051C29.0801 17.7051 31.5859 15.3438 31.5859 12.4414C31.5859 9.53902 29.0801 7.17773 26 7.17773V17.7051Z" fill="#CCEFFF"/>
<path d="M30.5703 37.8027V20.5762H26V40.6738H33.6172V37.8027H30.5703Z" fill="#CCEFFF"/>
</svg>
