<svg width="64" height="64" viewBox="0 0 64 64" fill="none" xmlns="http://www.w3.org/2000/svg">
<path d="M31.891 0C14.307 0 0 14.307 0 31.891C0 49.475 14.307 63.782 31.891 63.782C49.475 63.782 63.782 49.475 63.782 31.891C63.782 14.307 49.475 0 31.891 0ZM31.891 55.877C18.664 55.877 7.905 45.117 7.905 31.891C7.905 18.664 18.664 7.903 31.891 7.903C45.118 7.903 55.877 18.664 55.877 31.891C55.877 45.117 45.117 55.877 31.891 55.877V55.877Z" fill="#1B75BB"/>
<path d="M31.9339 17.9191C30.8329 17.9191 29.8839 17.5821 29.0979 16.9061C28.3119 16.2281 27.9199 15.2671 27.9199 14.0251C27.9199 12.9001 28.3199 11.9731 29.1259 11.2481C29.9309 10.5191 30.8679 10.1541 31.9339 10.1541C32.9609 10.1541 33.8759 10.4821 34.6699 11.1441C35.4619 11.8031 35.8629 12.7651 35.8629 14.0251C35.8629 15.2481 35.4729 16.1991 34.6969 16.8931C33.9209 17.5781 32.9999 17.9191 31.9339 17.9191V17.9191ZM35.8629 26.1271V49.0841C35.8629 50.6741 35.4809 51.8771 34.7259 52.6921C33.9729 53.5041 33.0109 53.9131 31.8469 53.9131C30.6829 53.9131 29.7339 53.4981 29.0089 52.6631C28.2799 51.8281 27.9189 50.6351 27.9189 49.0841V26.3621C27.9189 24.7901 28.2799 23.6051 29.0089 22.8111C29.7339 22.0141 30.6829 21.6221 31.8469 21.6221C33.0109 21.6221 33.9729 22.0141 34.7259 22.8111C35.4809 23.6041 35.8629 24.7141 35.8629 26.1271" fill="#0A4EAF"/>
</svg>
