<svg width="30" height="27" viewBox="0 0 30 27" fill="none" xmlns="http://www.w3.org/2000/svg">
<path d="M26.0984 20.3125H23.7642C23.6048 20.3125 23.4554 20.3782 23.3558 20.4938C23.1234 20.7594 22.8744 21.0157 22.6121 21.2594C21.5392 22.2701 20.2685 23.0756 18.8701 23.6313C17.4213 24.2072 15.8641 24.5027 14.2914 24.5C12.7009 24.5 11.1603 24.2063 9.71265 23.6313C8.31423 23.0756 7.04347 22.2701 5.97066 21.2594C4.89593 20.2521 4.03896 19.0582 3.44722 17.7438C2.83296 16.3813 2.52418 14.9344 2.52418 13.4375C2.52418 11.9407 2.83629 10.4938 3.44722 9.1313C4.03824 7.81567 4.88824 6.6313 5.97066 5.61567C7.05308 4.60005 8.31148 3.80005 9.71265 3.2438C11.1603 2.6688 12.7009 2.37505 14.2914 2.37505C15.8818 2.37505 17.4224 2.66567 18.8701 3.2438C20.2712 3.80005 21.5296 4.60005 22.6121 5.61567C22.8744 5.86255 23.1201 6.1188 23.3558 6.3813C23.4554 6.49692 23.6082 6.56255 23.7642 6.56255H26.0984C26.3076 6.56255 26.4371 6.3438 26.3209 6.17817C23.7742 2.45317 19.3183 -0.0124527 14.2548 4.73083e-05C6.29937 0.0187973 -0.0789489 6.09692 0.000738618 13.575C0.0804261 20.9344 6.44879 26.875 14.2914 26.875C19.3416 26.875 23.7775 24.4125 26.3209 20.6969C26.4337 20.5313 26.3076 20.3125 26.0984 20.3125ZM29.0501 13.2407L24.3386 9.74067C24.1626 9.60942 23.907 9.72817 23.907 9.93755V12.3125H13.4812C13.3351 12.3125 13.2156 12.425 13.2156 12.5625V14.3125C13.2156 14.45 13.3351 14.5625 13.4812 14.5625H23.907V16.9375C23.907 17.1469 24.166 17.2657 24.3386 17.1344L29.0501 13.6344C29.0819 13.611 29.1076 13.5812 29.1252 13.547C29.1429 13.5129 29.1521 13.4755 29.1521 13.4375C29.1521 13.3996 29.1429 13.3622 29.1252 13.328C29.1076 13.2939 29.0819 13.2641 29.0501 13.2407Z" fill="black"/>
</svg>
