<svg width="121" height="121" viewBox="0 0 121 121" fill="none" xmlns="http://www.w3.org/2000/svg">
<path fill-rule="evenodd" clip-rule="evenodd" d="M33.1184 92.4188C53.5108 89.4396 67.5516 89.6958 87.9708 92.523C89.4496 92.7374 90.8008 93.4796 91.775 94.6126C92.7492 95.7455 93.2805 97.1928 93.2708 98.6869C93.2708 100.117 92.7792 101.505 91.8914 102.59C90.344 104.48 88.7588 106.34 87.1367 108.167H95.0046C95.4992 107.577 95.9967 106.975 96.5002 106.364C98.2673 104.197 99.2313 101.486 99.2291 98.6899C99.2291 92.6571 94.8259 87.4584 88.7871 86.6243C67.8853 83.7315 53.2754 83.4544 32.2574 86.526C26.1561 87.4167 21.7708 92.6958 21.7708 98.7703C21.7708 101.466 22.6496 104.133 24.315 106.293C24.8065 106.93 25.2921 107.556 25.7748 108.17H33.4521C31.9429 106.363 30.4709 104.525 29.0369 102.658C28.1848 101.54 27.7251 100.173 27.7291 98.7674C27.7291 95.5588 30.035 92.8686 33.1184 92.4188Z" fill="black"/>
<path fill-rule="evenodd" clip-rule="evenodd" d="M60.5 63.4791C62.8473 63.4791 65.1717 63.0168 67.3404 62.1185C69.5091 61.2202 71.4796 59.9035 73.1395 58.2437C74.7993 56.5838 76.116 54.6133 77.0143 52.4446C77.9126 50.2759 78.375 47.9515 78.375 45.6041C78.375 43.2568 77.9126 40.9324 77.0143 38.7637C76.116 36.595 74.7993 34.6245 73.1395 32.9646C71.4796 31.3048 69.5091 29.9881 67.3404 29.0898C65.1717 28.1915 62.8473 27.7291 60.5 27.7291C55.7592 27.7291 51.2126 29.6124 47.8604 32.9646C44.5082 36.3168 42.625 40.8634 42.625 45.6041C42.625 50.3449 44.5082 54.8915 47.8604 58.2437C51.2126 61.5959 55.7592 63.4791 60.5 63.4791ZM60.5 69.4375C66.821 69.4375 72.8831 66.9265 77.3527 62.4569C81.8223 57.9872 84.3333 51.9251 84.3333 45.6041C84.3333 39.2832 81.8223 33.2211 77.3527 28.7514C72.8831 24.2818 66.821 21.7708 60.5 21.7708C54.179 21.7708 48.1169 24.2818 43.6472 28.7514C39.1776 33.2211 36.6666 39.2832 36.6666 45.6041C36.6666 51.9251 39.1776 57.9872 43.6472 62.4569C48.1169 66.9265 54.179 69.4375 60.5 69.4375Z" fill="black"/>
<path fill-rule="evenodd" clip-rule="evenodd" d="M60.5 114.125C90.1159 114.125 114.125 90.1159 114.125 60.5C114.125 30.8841 90.1159 6.87499 60.5 6.87499C30.8841 6.87499 6.87496 30.8841 6.87496 60.5C6.87496 90.1159 30.8841 114.125 60.5 114.125ZM60.5 120.083C93.4078 120.083 120.083 93.4079 120.083 60.5C120.083 27.5921 93.4078 0.916656 60.5 0.916656C27.5921 0.916656 0.916626 27.5921 0.916626 60.5C0.916626 93.4079 27.5921 120.083 60.5 120.083Z" fill="black"/>
</svg>
