<svg width="57" height="57" viewBox="0 0 57 57" fill="none" xmlns="http://www.w3.org/2000/svg">
<path fill-rule="evenodd" clip-rule="evenodd" d="M17.5857 41.2229C25.7141 40.0354 31.3108 40.1375 39.4499 41.2644C40.0394 41.3499 40.578 41.6457 40.9663 42.0973C41.3546 42.5489 41.5664 43.1258 41.5625 43.7214C41.5625 44.2914 41.3666 44.8447 41.0127 45.277C40.3959 46.0306 39.764 46.7718 39.1174 47.5H42.2536C42.4508 47.2649 42.6491 47.025 42.8498 46.7816C43.5541 45.9178 43.9384 44.8371 43.9375 43.7226C43.9375 41.3179 42.1824 39.2457 39.7753 38.9132C31.4438 37.7601 25.6203 37.6497 17.2425 38.874C14.8105 39.2291 13.0625 41.3333 13.0625 43.7546C13.0625 44.8293 13.4128 45.8921 14.0766 46.7531C14.2726 47.0072 14.4661 47.2566 14.6585 47.5012H17.7187C17.1171 46.781 16.5304 46.0485 15.9588 45.3043C15.6191 44.8588 15.4359 44.3137 15.4375 43.7534C15.4375 42.4745 16.3566 41.4022 17.5857 41.2229Z" fill="#F7931E"/>
<path fill-rule="evenodd" clip-rule="evenodd" d="M28.5 29.6875C29.4357 29.6875 30.3622 29.5032 31.2266 29.1451C32.0911 28.7871 32.8765 28.2623 33.5381 27.6006C34.1998 26.939 34.7246 26.1536 35.0826 25.2891C35.4407 24.4247 35.625 23.4982 35.625 22.5625C35.625 21.6268 35.4407 20.7003 35.0826 19.8359C34.7246 18.9714 34.1998 18.186 33.5381 17.5244C32.8765 16.8627 32.0911 16.3379 31.2266 15.9799C30.3622 15.6218 29.4357 15.4375 28.5 15.4375C26.6103 15.4375 24.7981 16.1882 23.4619 17.5244C22.1257 18.8606 21.375 20.6728 21.375 22.5625C21.375 24.4522 22.1257 26.2644 23.4619 27.6006C24.7981 28.9368 26.6103 29.6875 28.5 29.6875ZM28.5 32.0625C31.0196 32.0625 33.4359 31.0616 35.2175 29.28C36.9991 27.4984 38 25.0821 38 22.5625C38 20.0429 36.9991 17.6266 35.2175 15.845C33.4359 14.0634 31.0196 13.0625 28.5 13.0625C25.9804 13.0625 23.5641 14.0634 21.7825 15.845C20.0009 17.6266 19 20.0429 19 22.5625C19 25.0821 20.0009 27.4984 21.7825 29.28C23.5641 31.0616 25.9804 32.0625 28.5 32.0625Z" fill="#F7931E"/>
<path fill-rule="evenodd" clip-rule="evenodd" d="M28.5 49.875C40.3049 49.875 49.875 40.3049 49.875 28.5C49.875 16.6951 40.3049 7.125 28.5 7.125C16.6951 7.125 7.125 16.6951 7.125 28.5C7.125 40.3049 16.6951 49.875 28.5 49.875ZM28.5 52.25C41.6171 52.25 52.25 41.6171 52.25 28.5C52.25 15.3829 41.6171 4.75 28.5 4.75C15.3829 4.75 4.75 15.3829 4.75 28.5C4.75 41.6171 15.3829 52.25 28.5 52.25Z" fill="#F7931E"/>
</svg>
