<?xml version="1.0" encoding="utf-8"?>
<!-- Generator: Adobe Illustrator 23.0.3, SVG Export Plug-In . SVG Version: 6.00 Build 0)  -->
<svg version="1.1" id="Layer_1" xmlns="http://www.w3.org/2000/svg" xmlns:xlink="http://www.w3.org/1999/xlink" x="0px" y="0px"
	 viewBox="0 0 387.9 387.9" style="enable-background:new 0 0 387.9 387.9;" xml:space="preserve">
<style type="text/css">
	.st0{fill:#258ACE;}
	.st1{fill:#FDB735;}
	.st2{fill:#36C136;}
	.st3{fill:#FD2475;}
	.st4{fill:#895EAD;}
	.st5{fill:#D83632;}
	.st6{fill:#30D4A2;}
	.st7{fill:#46CCCC;}
	.st8{fill:#4CC3CB;}
	.st9{fill:#60B0E2;}
	.st10{fill:none;stroke:#000000;stroke-width:14;stroke-miterlimit:10;}
	.st11{fill:#FFFFFF;}
</style>
<circle class="st7" cx="194" cy="194" r="168.8"/>
<path class="st11" d="M228.9,121.3c-23.2,0-46.3,0-69.5,0c-9.1,0-12.8,3.7-12.8,12.7c0,20,0,40,0,60c0,20,0,40,0,60
	c0,9.1,3.6,12.8,12.6,12.8c23.2,0,46.3,0,69.5,0c8.9,0,12.6-3.8,12.6-12.9c0-40,0-80,0-119.9C241.3,125.3,237.4,121.3,228.9,121.3z
	 M204.5,130.1c0.6,0,1.4,0.2,1.5,0.9c0.1,0.7-0.3,1.3-1.1,1.3c-7.7,0-15.3,0-23,0c0-0.8,0-1.5,0-2.3
	C189.4,130.1,196.9,130,204.5,130.1z M194,259.2c-3.4,0.2-6.3-2.8-6.4-6.3c-0.1-3.5,2.8-6.4,6.2-6.5c3.4,0,6.4,2.9,6.5,6.5
	C199.9,256.5,197.9,258.9,194,259.2z M225.7,240.5c-21.1-0.2-42.3-0.2-63.4,0c-3.5,0-4-1.2-4-4.3c0.1-15.3,0.1-30.6,0.1-45.9
	c0-15.3,0.1-30.6-0.1-45.9c0-3.1,0.6-4.3,4-4.2c21.1,0.2,42.3,0.2,63.4,0c3.5,0,4,1.2,4,4.3c-0.1,30.6-0.1,61.3,0,91.9
	C229.7,239.3,229.1,240.5,225.7,240.5z"/>
</svg>
